<svg width="102" height="118" viewBox="0 0 102 118" fill="none" xmlns="http://www.w3.org/2000/svg">
<path fill-rule="evenodd" clip-rule="evenodd" d="M102 3C102 4.65685 100.657 6 99 6C97.3431 6 96 4.65685 96 3C96 1.34315 97.3431 0 99 0C100.657 0 102 1.34315 102 3ZM99 22C100.657 22 102 20.6569 102 19C102 17.3431 100.657 16 99 16C97.3431 16 96 17.3431 96 19C96 20.6569 97.3431 22 99 22ZM102 35C102 36.6569 100.657 38 99 38C97.3431 38 96 36.6569 96 35C96 33.3431 97.3431 32 99 32C100.657 32 102 33.3431 102 35ZM99 54C100.657 54 102 52.6569 102 51C102 49.3431 100.657 48 99 48C97.3431 48 96 49.3431 96 51C96 52.6569 97.3431 54 99 54ZM102 67C102 68.6569 100.657 70 99 70C97.3431 70 96 68.6569 96 67C96 65.3431 97.3431 64 99 64C100.657 64 102 65.3431 102 67ZM99 86C100.657 86 102 84.6569 102 83C102 81.3431 100.657 80 99 80C97.3431 80 96 81.3431 96 83C96 84.6569 97.3431 86 99 86ZM102 99C102 100.657 100.657 102 99 102C97.3431 102 96 100.657 96 99C96 97.3431 97.3431 96 99 96C100.657 96 102 97.3431 102 99ZM3 118C4.65685 118 6 116.657 6 115C6 113.343 4.65685 112 3 112C1.34315 112 0 113.343 0 115C0 116.657 1.34315 118 3 118ZM22 115C22 116.657 20.6569 118 19 118C17.3431 118 16 116.657 16 115C16 113.343 17.3431 112 19 112C20.6569 112 22 113.343 22 115ZM35 118C36.6569 118 38 116.657 38 115C38 113.343 36.6569 112 35 112C33.3431 112 32 113.343 32 115C32 116.657 33.3431 118 35 118ZM54 115C54 116.657 52.6569 118 51 118C49.3431 118 48 116.657 48 115C48 113.343 49.3431 112 51 112C52.6569 112 54 113.343 54 115ZM67 118C68.6569 118 70 116.657 70 115C70 113.343 68.6569 112 67 112C65.3431 112 64 113.343 64 115C64 116.657 65.3431 118 67 118ZM86 115C86 116.657 84.6569 118 83 118C81.3431 118 80 116.657 80 115C80 113.343 81.3431 112 83 112C84.6569 112 86 113.343 86 115ZM102 115C102 116.657 100.657 118 99 118C97.3431 118 96 116.657 96 115C96 113.343 97.3431 112 99 112C100.657 112 102 113.343 102 115ZM83 102C84.6569 102 86 100.657 86 99C86 97.3431 84.6569 96 83 96C81.3431 96 80 97.3431 80 99C80 100.657 81.3431 102 83 102ZM70 99C70 100.657 68.6569 102 67 102C65.3431 102 64 100.657 64 99C64 97.3431 65.3431 96 67 96C68.6569 96 70 97.3431 70 99ZM51 102C52.6569 102 54 100.657 54 99C54 97.3431 52.6569 96 51 96C49.3431 96 48 97.3431 48 99C48 100.657 49.3431 102 51 102ZM38 99C38 100.657 36.6569 102 35 102C33.3431 102 32 100.657 32 99C32 97.3431 33.3431 96 35 96C36.6569 96 38 97.3431 38 99ZM19 102C20.6569 102 22 100.657 22 99C22 97.3431 20.6569 96 19 96C17.3431 96 16 97.3431 16 99C16 100.657 17.3431 102 19 102ZM6 99C6 100.657 4.65685 102 3 102C1.34315 102 0 100.657 0 99C0 97.3431 1.34315 96 3 96C4.65685 96 6 97.3431 6 99ZM86 83C86 84.6569 84.6569 86 83 86C81.3431 86 80 84.6569 80 83C80 81.3431 81.3431 80 83 80C84.6569 80 86 81.3431 86 83ZM67 86C68.6569 86 70 84.6569 70 83C70 81.3431 68.6569 80 67 80C65.3431 80 64 81.3431 64 83C64 84.6569 65.3431 86 67 86ZM54 83C54 84.6569 52.6569 86 51 86C49.3431 86 48 84.6569 48 83C48 81.3431 49.3431 80 51 80C52.6569 80 54 81.3431 54 83ZM35 86C36.6569 86 38 84.6569 38 83C38 81.3431 36.6569 80 35 80C33.3431 80 32 81.3431 32 83C32 84.6569 33.3431 86 35 86ZM22 83C22 84.6569 20.6569 86 19 86C17.3431 86 16 84.6569 16 83C16 81.3431 17.3431 80 19 80C20.6569 80 22 81.3431 22 83ZM3 86C4.65685 86 6 84.6569 6 83C6 81.3431 4.65685 80 3 80C1.34315 80 0 81.3431 0 83C0 84.6569 1.34315 86 3 86ZM83 70C84.6569 70 86 68.6569 86 67C86 65.3431 84.6569 64 83 64C81.3431 64 80 65.3431 80 67C80 68.6569 81.3431 70 83 70ZM70 67C70 68.6569 68.6569 70 67 70C65.3431 70 64 68.6569 64 67C64 65.3431 65.3431 64 67 64C68.6569 64 70 65.3431 70 67ZM51 70C52.6569 70 54 68.6569 54 67C54 65.3431 52.6569 64 51 64C49.3431 64 48 65.3431 48 67C48 68.6569 49.3431 70 51 70ZM38 67C38 68.6569 36.6569 70 35 70C33.3431 70 32 68.6569 32 67C32 65.3431 33.3431 64 35 64C36.6569 64 38 65.3431 38 67ZM19 70C20.6569 70 22 68.6569 22 67C22 65.3431 20.6569 64 19 64C17.3431 64 16 65.3431 16 67C16 68.6569 17.3431 70 19 70ZM6 67C6 68.6569 4.65685 70 3 70C1.34315 70 0 68.6569 0 67C0 65.3431 1.34315 64 3 64C4.65685 64 6 65.3431 6 67ZM86 51C86 52.6569 84.6569 54 83 54C81.3431 54 80 52.6569 80 51C80 49.3431 81.3431 48 83 48C84.6569 48 86 49.3431 86 51ZM67 54C68.6569 54 70 52.6569 70 51C70 49.3431 68.6569 48 67 48C65.3431 48 64 49.3431 64 51C64 52.6569 65.3431 54 67 54ZM54 51C54 52.6569 52.6569 54 51 54C49.3431 54 48 52.6569 48 51C48 49.3431 49.3431 48 51 48C52.6569 48 54 49.3431 54 51ZM35 54C36.6569 54 38 52.6569 38 51C38 49.3431 36.6569 48 35 48C33.3431 48 32 49.3431 32 51C32 52.6569 33.3431 54 35 54ZM22 51C22 52.6569 20.6569 54 19 54C17.3431 54 16 52.6569 16 51C16 49.3431 17.3431 48 19 48C20.6569 48 22 49.3431 22 51ZM3 54C4.65685 54 6 52.6569 6 51C6 49.3431 4.65685 48 3 48C1.34315 48 0 49.3431 0 51C0 52.6569 1.34315 54 3 54ZM83 38C84.6569 38 86 36.6569 86 35C86 33.3431 84.6569 32 83 32C81.3431 32 80 33.3431 80 35C80 36.6569 81.3431 38 83 38ZM70 35C70 36.6569 68.6569 38 67 38C65.3431 38 64 36.6569 64 35C64 33.3431 65.3431 32 67 32C68.6569 32 70 33.3431 70 35ZM51 38C52.6569 38 54 36.6569 54 35C54 33.3431 52.6569 32 51 32C49.3431 32 48 33.3431 48 35C48 36.6569 49.3431 38 51 38ZM38 35C38 36.6569 36.6569 38 35 38C33.3431 38 32 36.6569 32 35C32 33.3431 33.3431 32 35 32C36.6569 32 38 33.3431 38 35ZM19 38C20.6569 38 22 36.6569 22 35C22 33.3431 20.6569 32 19 32C17.3431 32 16 33.3431 16 35C16 36.6569 17.3431 38 19 38ZM6 35C6 36.6569 4.65685 38 3 38C1.34315 38 0 36.6569 0 35C0 33.3431 1.34315 32 3 32C4.65685 32 6 33.3431 6 35ZM86 19C86 20.6569 84.6569 22 83 22C81.3431 22 80 20.6569 80 19C80 17.3431 81.3431 16 83 16C84.6569 16 86 17.3431 86 19ZM67 22C68.6569 22 70 20.6569 70 19C70 17.3431 68.6569 16 67 16C65.3431 16 64 17.3431 64 19C64 20.6569 65.3431 22 67 22ZM54 19C54 20.6569 52.6569 22 51 22C49.3431 22 48 20.6569 48 19C48 17.3431 49.3431 16 51 16C52.6569 16 54 17.3431 54 19ZM35 22C36.6569 22 38 20.6569 38 19C38 17.3431 36.6569 16 35 16C33.3431 16 32 17.3431 32 19C32 20.6569 33.3431 22 35 22ZM22 19C22 20.6569 20.6569 22 19 22C17.3431 22 16 20.6569 16 19C16 17.3431 17.3431 16 19 16C20.6569 16 22 17.3431 22 19ZM3 22C4.65685 22 6 20.6569 6 19C6 17.3431 4.65685 16 3 16C1.34315 16 0 17.3431 0 19C0 20.6569 1.34315 22 3 22ZM83 6C84.6569 6 86 4.65685 86 3C86 1.34315 84.6569 0 83 0C81.3431 0 80 1.34315 80 3C80 4.65685 81.3431 6 83 6ZM70 3C70 4.65685 68.6569 6 67 6C65.3431 6 64 4.65685 64 3C64 1.34315 65.3431 0 67 0C68.6569 0 70 1.34315 70 3ZM51 6C52.6569 6 54 4.65685 54 3C54 1.34315 52.6569 0 51 0C49.3431 0 48 1.34315 48 3C48 4.65685 49.3431 6 51 6ZM38 3C38 4.65685 36.6569 6 35 6C33.3431 6 32 4.65685 32 3C32 1.34315 33.3431 0 35 0C36.6569 0 38 1.34315 38 3ZM19 6C20.6569 6 22 4.65685 22 3C22 1.34315 20.6569 0 19 0C17.3431 0 16 1.34315 16 3C16 4.65685 17.3431 6 19 6ZM6 3C6 4.65685 4.65685 6 3 6C1.34315 6 0 4.65685 0 3C0 1.34315 1.34315 0 3 0C4.65685 0 6 1.34315 6 3Z" fill="#74D5DE"/>
</svg>
