<svg xmlns="http://www.w3.org/2000/svg" width="1440" height="618" viewBox="0 0 1440 618"><g fill="none" fill-rule="evenodd"><path fill="#F99D78" d="M65 197l-1.072 2.928L61 201l2.928 1.072L65 205l1.07-2.93L69 201l-2.93-1.072L65 197z"/><path fill="#CDDCE6" d="M636 382l-1.072 2.928L632 386l2.928 1.072L636 390l1.07-2.93L640 386l-2.93-1.072L636 382z"/><path fill="#7D728E" d="M653.5 385l-2.01 5.49-5.49 2.01 5.49 2.009L653.5 400l2.008-5.492L661 392.5v-.001l-5.492-2.008-2.006-5.491zm-624 30l-2.01 5.49L22 422.5l5.49 2.009L29.5 430l2.008-5.492L37 422.5v-.001l-5.492-2.008L29.502 415zm441-285l-2.01 5.49-5.49 2.01 5.49 2.009L470.5 145l2.008-5.492L478 137.5v-.001l-5.492-2.008-2.006-5.491z"/><path fill="#CDDCE6" d="M254.5 561l-2.01 5.49-5.49 2.008 5.49 2.01L254.5 576l2.008-5.492L262 568.5v-.002l-5.492-2.007-2.006-5.491z"/><path fill="#7D728E" d="M127.5 567l-2.01 5.49-5.49 2.01 5.49 2.009L127.5 582l2.008-5.492L135 574.5v-.001l-5.492-2.008-2.006-5.491z"/><path fill="#F99D78" d="M110 560l-1.34 3.66L105 565l3.66 1.34L110 570l1.339-3.661L115 565v-.001l-3.661-1.339L110 560z"/><path fill="#CDDCE6" d="M1397 430l-1.34 3.66L1392 435l3.66 1.34L1397 440l1.339-3.661L1402 435v-.001l-3.661-1.339L1397 430zM895.5 576l-2.01 5.49-5.49 2.008 5.49 2.01L895.5 591l2.008-5.492L903 583.5v-.002l-5.492-2.007-2.006-5.491z"/><path fill="#7D728E" d="M886 553l-1.34 3.66L881 558l3.66 1.34L886 563l1.339-3.661L891 558v-.001l-3.661-1.339L886 553z"/><path fill="#F99D78" d="M921 566l-1.072 2.928L917 570l2.928 1.072L921 574l1.07-2.93L925 570l-2.93-1.072L921 566z"/><path fill="#7D728E" d="M1295.5 145l-2.01 5.49-5.49 2.009 5.49 2.009 2.01 5.492 2.008-5.492L1303 152.5v-.001l-5.492-2.008-2.006-5.491zm-32 343l-2.01 5.49-5.49 2.009 5.49 2.009 2.01 5.492 2.008-5.492L1271 495.5v-.001l-5.492-2.008-2.006-5.491z"/><path fill="#F99D78" d="M1349 473l-1.072 2.928L1345 477l2.928 1.072L1349 481l1.07-2.93L1353 477l-2.93-1.072L1349 473z"/><path fill="#CDDCE6" d="M1148.5 280l-1.474 4.026L1143 285.5l4.026 1.473L1148.5 291l1.472-4.028L1154 285.5v-.001l-4.028-1.473-1.47-4.026z"/><path fill="#F99D78" d="M463.5 520l-2.01 5.49-5.49 2.01 5.49 2.009L463.5 535l2.008-5.492L471 527.5v-.001l-5.492-2.008-2.006-5.491z"/><path fill="#CDDCE6" d="M212 155l-1.34 3.66L207 160l3.66 1.34L212 165l1.339-3.661L217 160v-.001l-3.661-1.339L212 155z"/><path fill="#F99D78" d="M940.5 200l-2.01 5.49-5.49 2.01 5.49 2.009L940.5 215l2.008-5.492L948 207.5v-.001l-5.492-2.008-2.006-5.491z"/></g><script xmlns=""/><head xmlns=""/></svg>