<svg xmlns="http://www.w3.org/2000/svg" width="275" height="215" viewBox="0 0 275 215"><g fill="none" fill-rule="evenodd"><g transform="rotate(7 -394.85 644.384)"><ellipse cx="103.511" cy="56.174" fill="#F99D78" rx="55.805" ry="55.691"/><g fill="#FFF2D9" opacity=".59" transform="translate(66.693 14.829)"><ellipse cx="64.391" cy="65.731" opacity=".442" rx="7.265" ry="7.25"/><ellipse cx="73.141" cy="38.05" opacity=".442" rx="5.118" ry="5.108"/><ellipse cx="37.644" cy="52.879" opacity=".442" rx="8.916" ry="8.897"/><ellipse cx="51.017" cy="18.442" opacity=".442" rx="8.916" ry="8.897"/><ellipse cx="7.925" cy="67.378" opacity=".442" rx="7.265" ry="7.25"/><ellipse cx="33.021" cy="84.514" opacity=".442" rx="5.118" ry="5.108"/><ellipse cx="10.236" cy="29.976" opacity=".442" rx="5.118" ry="5.108"/><ellipse cx="22.124" cy="5.261" opacity=".442" rx="5.118" ry="5.108"/></g><path fill="#EB816F" d="M52.824 32.777s-35.663-8.897-40.45-1.812c-4.79 7.085 46.888 29.823 82.551 41.027 35.497 11.204 76.608 21.255 92.788 16.97 14.694-3.789-29.223-22.408-29.223-22.408l.495-3.46s36.818 13.182 45.238 28.01c7.43 13.017-38.139 10.216-110.29-12.357C39.12 61.611-8.924 37.226 1.973 27.01c11.557-10.874 52.668 2.307 52.668 2.307l-1.816 3.46z"/><path fill="#000" d="M159.151 63.094l-.165.495c.66-4.943.66-9.886 0-14.994-2.807-20.102-15.567-40.78-45.553-47.169 0 0 19.7 23.583 10.613 54.406-9.086 30.824-36.036 43.546-53.94 44.873 14.663 11.63 31.685 11.819 41.165 10.666 14.074-1.711 26.086-8.897 34.672-18.783 40.946 9.062 63.895 8.073 58.447-1.483-8.586-14.83-45.239-28.01-45.239-28.01zm-8.75 23.562a55.27 55.27 0 0 0 8.09-20.431v.494c0-.165 43.917 18.454 29.223 22.244-7.76 1.977-21.463.824-37.313-2.307z" opacity=".11"/></g><path stroke="#FFF" stroke-dasharray="4,14" stroke-linecap="round" stroke-width="2" d="M52.357 100.753c1.752 11.64 121.31 74.13 192.23 36.32 70.92-37.812-17.857-22.78-17.857-22.78"/><path fill="#EB816F" d="M46.296 105.828l11.202 1.587c.094.028.155-.006.182-.1l-.034-.061L55.61 96.13c-.816-4.48-5.115-7.508-9.65-6.666a8.253 8.253 0 0 0-6.64 9.649 8.24 8.24 0 0 0 6.977 6.715z"/><path fill="#F69C79" d="M44.656 101.008l7.322 1.033.122-.067-1.343-7.292c-.533-2.967-3.353-4.904-6.316-4.376-2.963.528-4.893 3.349-4.36 6.315.412 2.318 2.321 4.045 4.575 4.387z"/><path fill="#E7DFCA" d="M43.3 96.985l4.13.576.06-.034-.768-4.11c-.29-1.668-1.923-2.752-3.53-2.498-1.666.287-2.746 1.92-2.49 3.528a3.012 3.012 0 0 0 2.598 2.538z"/><path fill="#625872" d="M43.493 86.587l-6.56 7.485-2.454-2.151 6.559-7.485z"/><path fill="#473F54" d="M43.436 86.576l-3.302 3.769-2.455-2.151 3.302-3.769z"/><path fill="#473F54" d="M36.789 87.387c-4.86 5.558-5.582 13.278-2.33 19.432a17.817 17.817 0 0 1-5.554-3.287c-7.24-6.33-7.934-17.323-1.624-24.56 6.31-7.237 17.29-7.913 24.53-1.583 1.68 1.456 2.97 3.208 3.981 5.034-6.505-2.282-14.144-.594-19.003 4.964z"/><path fill="#625872" d="M24.83 82.717l9.536 8.32c-2.49 4.961-2.39 10.873.154 15.748a17.817 17.817 0 0 1-5.554-3.286c-6.107-5.288-7.597-13.85-4.135-20.782z"/><path fill="#7D9199" d="M38.469 88.843c-1.424 1.585-2.497 3.373-3.287 5.243-6.262-1.7-13.044-5.341-19.218-10.75C6.199 74.745.572 64.02.613 55.643c8.348-1.127 19.691 3.008 29.456 11.6 6.174 5.409 10.675 11.666 13.11 17.636-1.633 1.064-3.286 2.379-4.71 3.964z"/><path fill="#7D9199" d="M.674 55.609l.06-.034 37.856 33.2-.06.034c-1.424 1.585-2.498 3.373-3.287 5.243-6.263-1.7-13.044-5.34-19.219-10.75C6.233 74.806.606 64.08.674 55.61z"/><path fill="#4E687A" d="M9.891 63.787a101.406 101.406 0 0 0-5.02 6.125C2.103 64.92.585 60.034.612 55.642c4.299-.552 9.434.261 14.657 2.379-1.788 1.786-3.57 3.729-5.379 5.766z"/><path fill="#4E687A" d="M.768 55.636l9.245 8.083-.06.034a101.406 101.406 0 0 0-5.022 6.125c-1.08-1.947-1.97-3.84-2.611-5.713C1.227 61.19.727 58.285.707 55.67c-.033-.061-.033-.061.061-.034z"/><path fill="#625872" d="M23.016 75.289c2.193-2.489 1.904-6.306-.586-8.507-2.49-2.2-6.303-1.916-8.497.573-2.193 2.488-1.903 6.306.587 8.506 2.55 2.167 6.336 1.978 8.496-.572z"/><path fill="#E8E0CB" d="M15.384 68.54c1.512-1.714 4.177-1.918 5.891-.402 1.714 1.517 1.923 4.186.412 5.899-1.512 1.713-4.178 1.917-5.892.401a4.1 4.1 0 0 1-.41-5.899z"/><path fill="#625872" d="M13.994 67.32l1.45 1.186-.06.033c-1.512 1.714-1.363 4.416.411 5.899 1.714 1.516 4.414 1.373 5.892-.401l.06-.034 1.39 1.219-.06.033c-2.194 2.49-6.006 2.773-8.496.573-2.551-2.167-2.78-6.018-.587-8.507z"/><path fill="#E8E0CB" d="M15.735 74.472c-1.714-1.517-1.923-4.186-.412-5.899l.061-.034 6.303 5.498-.061.033c-1.478 1.775-4.117 1.884-5.891.402z"/></g><script xmlns=""/><head xmlns=""/></svg>