<svg xmlns="http://www.w3.org/2000/svg" xmlns:xlink="http://www.w3.org/1999/xlink" width="244" height="199" viewBox="0 0 244 199"><defs><path id="a" d="M2.083 27.186l22.982-24.89c2.01-2.224 5.458-2.368 7.684-.288l8.26 7.604c2.226 2.008 2.37 5.452.286 7.675L18.314 42.178c-2.011 2.224-5.459 2.367-7.685.287L2.37 34.861c-2.155-2.08-2.298-5.451-.287-7.675z"/><path id="c" d="M25.208 1.722L1.724 27.186c-1.868 2.08-1.796 5.237.287 7.173l8.762 8.034c2.082 1.865 5.242 1.794 7.182-.287l23.484-25.464c1.867-2.08 1.796-5.237-.287-7.173L32.39 1.435c-2.083-1.865-5.315-1.722-7.182.287z"/></defs><g fill="none" fill-rule="evenodd"><path stroke="#FFF" stroke-dasharray="3,8" stroke-linecap="round" d="M39.07 173.915C4.834 135.301 8.409 76.27 47.047 42.092c38.638-34.179 97.735-30.576 131.971 8.038"/><g transform="translate(143.728 10)"><ellipse cx="77.061" cy="77.183" fill="#E8E0CB" rx="3.375" ry="3.371"/><path fill="#F99D78" d="M37.56 35.435l-5.457 5.954-3.52-3.228c-1.508-1.434-1.651-3.802-.215-5.308l.36-.43c1.436-1.507 3.806-1.65 5.314-.216l3.519 3.228z"/><path fill="#625872" d="M30.329 42.747l8.473-9.187 3.901 3.599-8.472 9.186z"/><path fill="#7D9199" d="M68.765 52.954L52.112 71.01l-22.41-20.67 16.652-18.055z"/><path fill="#625872" d="M56.12 66.454l8.473-9.187 3.902 3.599-8.473 9.186z"/><path fill="#473F54" d="M59.224 51.33l-8.91 9.66-11.02-10.164 8.91-9.661z"/><path fill="#625872" d="M70.554 69.524l-1.801 1.953-5.484-5.057 1.801-1.954z"/><path fill="#ED8370" d="M68.012 81.989c-3.878-3.587-4.166-9.684-.575-13.557 3.591-3.874 9.696-4.16 13.574-.574l-13 14.131z"/><path fill="#625872" d="M59.25 51.288l-4.668 10.903-10.701-9.827 4.309-11.19z"/><ellipse cx="50.372" cy="53.788" fill="#7D9199" rx="1" ry="1.004" transform="rotate(132.686 50.372 53.788)"/><path fill="#7D9199" d="M43.006 62.485l-5.843 6.335-3.111-2.87 5.843-6.334z"/><g transform="translate(0 60.254)"><mask id="b" fill="#fff"><use xlink:href="#a"/></mask><use fill="#625872" xlink:href="#a"/><g fill="#473F54" mask="url(#b)"><path d="M20.684 1.435c.215-.287.646-.287.933-.072l19.75 18.22c.288.215.288.645.072.932-.215.287-.646.287-.934.072l-19.75-18.22c-.287-.287-.359-.645-.071-.932zM14.22 8.751c.215-.287.646-.287.934-.071l19.75 18.22c.287.214.287.645.071.932-.215.287-.646.287-.933.072l-19.75-18.22c-.287-.287-.287-.718-.072-.933zm-6.392 7.245c.216-.287.647-.287.934-.072l19.75 18.22c.287.215.287.646.072.933-.216.287-.647.287-.934.071L7.9 16.928c-.287-.286-.36-.645-.072-.932zm-6.463 7.245c.215-.287.646-.287.933-.072l19.75 18.22c.287.215.287.646.072.933-.215.286-.646.286-.934.071l-19.75-18.22c-.287-.215-.287-.645-.071-.932z"/><path d="M7.828 42.537L40.65 7.03c.216-.287.646-.287.934-.072.287.215.287.646.072.932L8.834 43.398c-.216.286-.647.286-.934.071-.287-.287-.287-.717-.072-.932zm-5.745-6.313L34.903.717c.216-.287.647-.287.934-.071.288.215.288.645.072.932L3.09 37.085c-.216.287-.647.287-.934.072-.288-.287-.288-.646-.072-.933z"/></g></g><path fill="#7D9199" d="M56.275 41.856l5.843-6.335 3.11 2.87-5.842 6.334z"/><g transform="translate(56.018)"><mask id="d" fill="#fff"><use xlink:href="#c"/></mask><use fill="#625872" xlink:href="#c"/><g fill="#473F54" mask="url(#d)"><path d="M.79 22.595c.215-.287.646-.287.934-.071l19.75 18.22c.287.215.287.645.071.932-.215.287-.646.287-.933.072L.862 23.528c-.287-.287-.287-.717-.072-.933zm6.75-7.029c.216-.287.647-.287.935-.072l19.75 18.22c.287.215.287.645.071.932-.215.287-.646.287-.933.072L7.54 16.498a.753.753 0 0 1 0-.932zm6.752-6.958c.215-.287.646-.287.933-.072l19.75 18.22c.288.215.288.645.072.932-.215.287-.646.287-.933.072L14.364 9.54c-.288-.287-.36-.717-.072-.932zm6.678-7.03c.216-.287.647-.287.935-.072l19.75 18.292c.287.215.287.645.071.932-.215.287-.646.287-.933.072l-19.75-18.22a.767.767 0 0 1-.072-1.004z"/><path d="M7.9 42.035l32.82-35.58c.216-.286.647-.286.935-.07.287.214.287.645.071.932L8.906 42.824c-.216.287-.647.287-.934.071a.59.59 0 0 1-.072-.86zm-6.75-5.237L33.97 1.291c.215-.287.646-.287.934-.072.287.216.287.646.071.933L2.155 37.659c-.216.287-.647.287-.934.072-.287-.287-.287-.646-.072-.933z"/></g></g></g></g><head xmlns=""/><script xmlns=""/></svg>