<svg width="824" height="824" viewBox="0 0 824 824" fill="none" xmlns="http://www.w3.org/2000/svg">
<path fill-rule="evenodd" clip-rule="evenodd" d="M824 256.627C824 246.845 824.004 237.062 823.944 227.279C823.895 219.038 823.8 210.799 823.576 202.562C823.092 184.609 822.033 166.502 818.84 148.749C815.602 130.741 810.314 113.98 801.981 97.6166C793.789 81.5337 783.088 66.8168 770.32 54.0578C757.555 41.2989 742.834 30.6049 726.746 22.4179C710.366 14.0829 693.587 8.79697 675.558 5.55998C657.803 2.37199 639.691 1.315 621.738 0.829997C613.495 0.606998 605.253 0.512998 597.008 0.461998C587.22 0.401999 577.432 0.406999 567.644 0.406999L453.997 0H368.997L257.361 0.406999C247.554 0.406999 237.747 0.401999 227.94 0.461998C219.678 0.512998 211.42 0.606998 203.161 0.829997C185.167 1.315 167.014 2.37299 149.217 5.56498C131.164 8.80097 114.36 14.0849 97.9583 22.4139C81.8354 30.6019 67.0825 41.2969 54.2906 54.0578C41.5007 66.8158 30.7798 81.5297 22.5728 97.6096C14.2169 113.981 8.91893 130.752 5.67296 148.77C2.47698 166.516 1.41799 184.617 0.930993 202.562C0.708995 210.8 0.612996 219.039 0.562996 227.279C0.502996 237.063 0 249.216 0 258.999L0.00299998 369.089L0 454.998L0.507996 567.427C0.507996 577.223 0.503996 587.019 0.562996 596.815C0.612996 605.067 0.708995 613.317 0.931993 621.566C1.41799 639.542 2.47898 657.675 5.67796 675.452C8.92293 693.484 14.2199 710.269 22.5688 726.653C30.7768 742.759 41.4997 757.495 54.2906 770.272C67.0815 783.049 81.8304 793.757 97.9503 801.956C114.362 810.302 131.174 815.595 149.238 818.836C167.027 822.029 185.174 823.088 203.161 823.573C211.42 823.796 219.679 823.891 227.941 823.941C237.748 824.001 247.554 823.997 257.361 823.997L370.006 824H455.217L567.644 823.996C577.432 823.996 587.22 824.001 597.008 823.941C605.253 823.891 613.495 823.796 621.738 823.573C639.698 823.087 657.816 822.027 675.579 818.832C693.597 815.591 710.368 810.3 726.739 801.959C742.831 793.761 757.554 783.051 770.32 770.272C783.086 757.497 793.786 742.763 801.978 726.66C810.316 710.268 815.604 693.475 818.844 675.431C822.034 657.661 823.092 639.535 823.577 621.566C823.8 613.316 823.895 605.066 823.944 596.815C824.005 587.019 824 577.223 824 567.427C824 567.427 823.994 456.983 823.994 454.998V368.999C823.994 367.533 824 256.627 824 256.627Z" fill="white"/>
<mask id="mask0" mask-type="alpha" maskUnits="userSpaceOnUse" x="0" y="0" width="824" height="824">
<path fill-rule="evenodd" clip-rule="evenodd" d="M824 256.627C824 246.845 824.004 237.062 823.944 227.279C823.895 219.038 823.8 210.799 823.576 202.562C823.092 184.609 822.033 166.502 818.84 148.749C815.602 130.741 810.314 113.98 801.981 97.6166C793.789 81.5337 783.088 66.8168 770.32 54.0578C757.555 41.2989 742.834 30.6049 726.746 22.4179C710.366 14.0829 693.587 8.79697 675.558 5.55998C657.803 2.37199 639.691 1.315 621.738 0.829997C613.495 0.606998 605.253 0.512998 597.008 0.461998C587.22 0.401999 577.432 0.406999 567.644 0.406999L453.997 0H368.997L257.361 0.406999C247.554 0.406999 237.747 0.401999 227.94 0.461998C219.678 0.512998 211.42 0.606998 203.161 0.829997C185.167 1.315 167.014 2.37299 149.217 5.56498C131.164 8.80097 114.36 14.0849 97.9583 22.4139C81.8354 30.6019 67.0825 41.2969 54.2906 54.0578C41.5007 66.8158 30.7798 81.5297 22.5728 97.6096C14.2169 113.981 8.91893 130.752 5.67296 148.77C2.47698 166.516 1.41799 184.617 0.930993 202.562C0.708995 210.8 0.612996 219.039 0.562996 227.279C0.502996 237.063 0 249.216 0 258.999L0.00299998 369.089L0 454.998L0.507996 567.427C0.507996 577.223 0.503996 587.019 0.562996 596.815C0.612996 605.067 0.708995 613.317 0.931993 621.566C1.41799 639.542 2.47898 657.675 5.67796 675.452C8.92293 693.484 14.2199 710.269 22.5688 726.653C30.7768 742.759 41.4997 757.495 54.2906 770.272C67.0815 783.049 81.8304 793.757 97.9503 801.956C114.362 810.302 131.174 815.595 149.238 818.836C167.027 822.029 185.174 823.088 203.161 823.573C211.42 823.796 219.679 823.891 227.941 823.941C237.748 824.001 247.554 823.997 257.361 823.997L370.006 824H455.217L567.644 823.996C577.432 823.996 587.22 824.001 597.008 823.941C605.253 823.891 613.495 823.796 621.738 823.573C639.698 823.087 657.816 822.027 675.579 818.832C693.597 815.591 710.368 810.3 726.739 801.959C742.831 793.761 757.554 783.051 770.32 770.272C783.086 757.497 793.786 742.763 801.978 726.66C810.316 710.268 815.604 693.475 818.844 675.431C822.034 657.661 823.092 639.535 823.577 621.566C823.8 613.316 823.895 605.066 823.944 596.815C824.005 587.019 824 577.223 824 567.427C824 567.427 823.994 456.983 823.994 454.998V368.999C823.994 367.533 824 256.627 824 256.627Z" fill="white"/>
</mask>
<g mask="url(#mask0)">
<path fill-rule="evenodd" clip-rule="evenodd" d="M255.321 85L412 196.514L263.467 308.027L113.5 196.514L255.321 85Z" fill="#60AEF3"/>
<path fill-rule="evenodd" clip-rule="evenodd" d="M562.55 85L710.5 196.514L562.55 308.027L412 196.514L562.55 85Z" fill="#593AE3"/>
<path fill-rule="evenodd" clip-rule="evenodd" d="M262.75 308.028L412 420.569L561.25 308.028L412 196.514L262.75 308.028Z" fill="#3656E9"/>
<path fill-rule="evenodd" clip-rule="evenodd" d="M113.5 196.514V534.433L262.75 646.698V308.541L113.5 196.514Z" fill="#A5DCFA"/>
<path fill-rule="evenodd" clip-rule="evenodd" d="M262.75 308.541L412 420.569V756.137L262.75 646.698V308.541Z" fill="#69BFF6"/>
<path fill-rule="evenodd" clip-rule="evenodd" d="M412 420.568L561.25 308.027V646.697L412 756.137V420.568Z" fill="#4184EF"/>
<path fill-rule="evenodd" clip-rule="evenodd" d="M561.25 308.541L710.5 196.514V532.339L561.25 646.698V308.541Z" fill="#444CE9"/>
</g>
</svg>
